:FULLY-SPECIFIED
:FORCE-ALL-JOINTS-BE-3DOF
:DEGREES
2446
root 2.43158 15.0531 -23.6365 -135.145 83.4511 -132.682
lfemur -33.2151 22.0048 -14.5121
ltibia 71.1629 -0 0
lfoot -24.6248 18.2033 0.0429529
ltoes -32.0906 0 0
rfemur -49.5432 -24.3329 12.401
rtibia 57.1165 -0 0
rfoot 9.77846 1.08181 -0.250833
rtoes 3.64599 -0 0
lowerback 17.6786 1.15391 -3.14081
upperback -0.221535 1.28857 3.32829
thorax -10.3089 0.916936 5.07716
lowerneck 3.9154 -13.2083 -15.0147
upperneck 0.476527 -18.4065 14.0993
head 2.21894 -9.3055 6.03485
lclavicle 6.98852e-015 1.11319e-014 0
lhumerus -29.0146 -58.8362 110.02
lradius 95.9578 -0 0
lwrist 55.0123 0 0
lhand -6.87483 51.6003 0.456083
lfingers 7.12502 -0 0
lthumb 18.9801 80.5548 0.386988
rclavicle 6.98852e-015 1.11319e-014 0
rhumerus 19.917 19.6755 -67.9526
rradius 113.364 -0 0
rwrist -9.62403 0 0
rhand -25.6398 -44.0793 0.186105
rfingers 7.12502 -0 0
rthumb 0.894771 -73.6922 0.170156
2447
root 2.50252 15.0321 -23.6376 -136.897 83.3399 -134.285
lfemur -32.7687 22.0081 -14.3114
ltibia 71.3195 -0 0
lfoot -25.0161 18.1491 0.0435539
ltoes -32.5188 0 0
rfemur -48.6671 -23.9652 11.5947
rtibia 55.7446 -0 0
rfoot 11.0195 1.14907 -0.227817
rtoes 4.73284 -0 0
lowerback 17.5441 1.00575 -3.3247
upperback -0.284824 1.06096 3.38179
thorax -10.2797 0.820205 5.3035
lowerneck 3.84534 -13.2036 -15.1002
upperneck 0.786482 -18.4119 13.9149
head 2.3118 -9.30487 5.97567
lclavicle 6.98852e-015 1.11319e-014 0
lhumerus -30.8684 -58.2935 110.776
lradius 97.3834 -0 0
lwrist 57.1172 0 0
lhand -5.88247 52.4636 0.478142
lfingers 7.12502 -0 0
lthumb 19.9332 81.3143 0.406965
rclavicle 6.98852e-015 1.11319e-014 0
rhumerus 17.5348 17.6023 -69.0523
rradius 113.796 -0 0
rwrist -4.56184 0 0
rhand -27.1911 -44.301 0.191534
rfingers 7.12502 -0 0
rthumb -0.602566 -73.9042 0.175114
2448
root 2.57346 15.0111 -23.6387 -138.628 83.223 -135.875
lfemur -32.3423 22.0025 -14.1084
ltibia 71.4908 -0 0
lfoot -25.4089 18.0898 0.0429846
ltoes -32.964 0 0
rfemur -47.7777 -23.5827 10.8045
rtibia 54.3959 -0 0
rfoot 12.2302 1.19447 -0.197494
rtoes 5.80216 -0 0
lowerback 17.4055 0.858577 -3.50799
upperback -0.35084 0.835075 3.4325
thorax -10.2507 0.724027 5.52607
lowerneck 3.77404 -13.2003 -15.1844
upperneck 1.09699 -18.4178 13.7286
head 2.40492 -9.30481 5.91554
lclavicle 6.98852e-015 1.11319e-014 0
lhumerus -32.6882 -57.6876 111.474
lradius 98.8252 -0 0
lwrist 59.2241 0 0
lhand -4.89608 53.3064 0.487246
lfingers 7.12502 -0 0
lthumb 20.8803 82.0519 0.415845
rclavicle 6.98852e-015 1.11319e-014 0
rhumerus 15.231 15.4822 -70.0419
rradius 114.218 -0 0
rwrist 0.518427 0 0
rhand -28.7465 -44.5224 0.192179
rfingers 7.12502 -0 0
rthumb -2.10392 -74.1156 0.175744
2449
root 2.6444 14.9901 -23.6398 -140.315 83.1025 -137.432
lfemur -31.9379 21.9906 -13.9058
ltibia 71.6766 -0 0
lfoot -25.8015 18.0287 0.041272
ltoes -33.4191 0 0
rfemur -46.8926 -23.1945 10.038
rtibia 53.0846 -0 0
rfoot 13.3983 1.22605 -0.161562
rtoes 6.84807 -0 0
lowerback 17.265 0.713432 -3.68917
upperback -0.418687 0.612614 3.48042
thorax -10.2225 0.629144 5.7435
lowerneck 3.70285 -13.1988 -15.2667
upperneck 1.40455 -18.4247 13.5431
head 2.49733 -9.30564 5.85525
lclavicle 6.98852e-015 1.11319e-014 0
lhumerus -34.457 -57.032 112.107
lradius 100.265 -0 0
lwrist 61.3152 0 0
lhand -3.92129 54.1178 0.483009
lfingers 7.12502 -0 0
lthumb 21.8161 82.7575 0.413248
rclavicle 6.98852e-015 1.11319e-014 0
rhumerus 13.0207 13.3359 -70.9171
rradius 114.615 -0 0
rwrist 5.56448 0 0
rhand -30.2899 -44.743 0.188009
rfingers 7.12502 -0 0
rthumb -3.59369 -74.3261 0.172018
2450
root 2.71534 14.9691 -23.641 -141.94 82.9804 -138.937
lfemur -31.5576 21.9753 -13.706
ltibia 71.8765 -0 0
lfoot -26.1922 17.9685 0.0384882
ltoes -33.8772 0 0
rfemur -46.029 -22.8105 9.30249
rtibia 51.8251 -0 0
rfoot 14.5116 1.25169 -0.122063
rtoes 7.86465 -0 0
lowerback 17.1247 0.571395 -3.86672
upperback -0.487466 0.395253 3.52556
thorax -10.1955 0.536304 5.95444
lowerneck 3.63312 -13.1995 -15.3463
upperneck 1.70566 -18.4333 13.3607
head 2.58803 -9.30769 5.79563
lclavicle 6.98852e-015 1.11319e-014 0
lhumerus -36.161 -56.3401 112.675
lradius 101.686 -0 0
lwrist 63.3728 0 0
lhand -2.96372 54.8867 0.465555
lfingers 7.12502 -0 0
lthumb 22.7353 83.4207 0.399243
rclavicle 6.98852e-015 1.11319e-014 0
rhumerus 10.9168 11.1846 -71.6763
rradius 114.972 -0 0
rwrist 10.524 0 0
rhand -31.8052 -44.9622 0.179146
rfingers 7.12502 -0 0
rthumb -5.05625 -74.5353 0.164039
2451
root 2.78629 14.9482 -23.6421 -143.488 82.8591 -140.376
lfemur -31.2035 21.9595 -13.5116
ltibia 72.0902 -0 0
lfoot -26.579 17.9124 0.0347497
ltoes -34.3312 0 0
rfemur -45.2032 -22.4409 8.6042
rtibia 50.6316 -0 0
rfoot 15.558 1.27921 -0.0813532
rtoes 8.846 -0 0
lowerback 16.9867 0.433563 -4.03917
upperback -0.556274 0.184673 3.56791
thorax -10.1703 0.446259 6.15753
lowerneck 3.56618 -13.2027 -15.4227
upperneck 1.99683 -18.4441 13.1841
head 2.67605 -9.31131 5.73749
lclavicle 6.98852e-015 1.11319e-014 0
lhumerus -37.7887 -55.6259 113.177
lradius 103.068 -0 0
lwrist 65.3794 0 0
lhand -2.02897 55.602 0.435494
lfingers 7.12502 -0 0
lthumb 23.6326 84.0313 0.374315
rclavicle 6.98852e-015 1.11319e-014 0
rhumerus 8.9317 9.05034 -72.3202
rradius 115.277 -0 0
rwrist 15.3448 0 0
rhand -33.276 -45.1796 0.165857
rfingers 7.12502 -0 0
rthumb -6.47601 -74.7428 0.152038
2452
root 2.85723 14.9272 -23.6432 -144.945 82.7412 -141.737
lfemur -30.8776 21.946 -13.3251
ltibia 72.3173 -0 0
lfoot -26.9603 17.8633 0.030216
ltoes -34.774 0 0
rfemur -44.4312 -22.0968 7.94889
rtibia 49.5185 -0 0
rfoot 16.5253 1.31627 -0.0420612
rtoes 9.78624 -0 0
lowerback 16.8531 0.301053 -4.20504
upperback -0.62421 -0.0174448 3.60746
thorax -10.1472 0.359767 6.35141
lowerneck 3.50339 -13.209 -15.4951
upperneck 2.27458 -18.4579 13.0157
head 2.7604 -9.31681 5.68165
lclavicle 6.98852e-015 1.11319e-014 0
lhumerus -39.3309 -54.9031 113.617
lradius 104.396 -0 0
lwrist 67.3172 0 0
lhand -1.12261 56.2526 0.393876
lfingers 7.12502 -0 0
lthumb 24.5025 84.5789 0.339327
rclavicle 6.98852e-015 1.11319e-014 0
rhumerus 7.0772 6.9551 -72.8517
rradius 115.514 -0 0
rwrist 19.9744 0 0
rhand -34.6864 -45.3945 0.148556
rfingers 7.12502 -0 0
rthumb -7.83734 -74.9483 0.136374
2453
root 2.92817 14.9062 -23.6444 -146.302 82.6295 -143.01
lfemur -30.5818 21.9378 -13.1489
ltibia 72.5574 -0 0
lfoot -27.3343 17.8242 0.0250883
ltoes -35.1987 0 0
rfemur -43.7286 -21.7894 7.34175
rtibia 48.5 -0 0
rfoot 17.4013 1.37045 -0.00703194
rtoes 10.6795 -0 0
lowerback 16.7261 0.174998 -4.36287
upperback -0.690369 -0.209424 3.64419
thorax -10.1269 0.277588 6.53472
lowerneck 3.44609 -13.2187 -15.5628
upperneck 2.53541 -18.4754 12.858
head 2.84011 -9.32455 5.62893
lclavicle 6.98852e-015 1.11319e-014 0
lhumerus -40.7801 -54.1854 114.001
lradius 105.65 -0 0
lwrist 69.1686 0 0
lhand -0.250148 56.8275 0.342138
lfingers 7.12502 -0 0
lthumb 25.3398 85.0534 0.295476
rclavicle 6.98852e-015 1.11319e-014 0
rhumerus 5.36524 4.92075 -73.2754
rradius 115.669 -0 0
rwrist 24.3606 0 0
rhand -36.02 -45.6064 0.127795
rfingers 7.12502 -0 0
rthumb -9.12464 -75.1514 0.117526
2454
root 2.99911 14.8852 -23.6455 -147.551 82.5268 -144.188
lfemur -30.3182 21.9377 -12.9853
ltibia 72.8104 -0 0
lfoot -27.6993 17.7981 0.0196056
ltoes -35.5981 0 0
rfemur -43.1105 -21.5303 6.78755
rtibia 47.5905 -0 0
rfoot 18.1738 1.44923 0.0207477
rtoes 11.5197 -0 0
lowerback 16.6076 0.0565504 -4.51122
upperback -0.753845 -0.389587 3.67804
thorax -10.1097 0.200485 6.70612
lowerneck 3.39563 -13.2321 -15.6252
upperneck 2.77584 -18.4974 12.7136
head 2.91419 -9.33486 5.58012
lclavicle 6.98852e-015 1.11319e-014 0
lhumerus -42.1298 -53.4865 114.335
lradius 106.812 -0 0
lwrist 70.9159 0 0
lhand 0.582982 57.3157 0.282039
lfingers 7.12502 -0 0
lthumb 26.1394 85.4445 0.244225
rclavicle 6.98852e-015 1.11319e-014 0
rhumerus 3.80836 2.96883 -73.5971
rradius 115.73 -0 0
rwrist 28.4511 0 0
rhand -37.2608 -45.815 0.104256
rfingers 7.12502 -0 0
rthumb -10.3223 -75.3519 0.0960869
2455
root 3.07005 14.8642 -23.6466 -148.685 82.4361 -145.265
lfemur -30.0886 21.9488 -12.8367
ltibia 73.0757 -0 0
lfoot -28.0535 17.7879 0.0140414
ltoes -35.9652 0 0
rfemur -42.5919 -21.3315 6.29084
rtibia 46.8042 -0 0
rfoot 18.8306 1.56003 0.0382368
rtoes 12.3012 -0 0
lowerback 16.4999 -0.0531269 -4.64865
upperback -0.813732 -0.556257 3.70898
thorax -10.0961 0.129224 6.86426
lowerneck 3.35334 -13.2498 -15.6816
upperneck 2.99239 -18.5246 12.5849
head 2.98167 -9.3481 5.53606
lclavicle 6.98852e-015 1.11319e-014 0
lhumerus -43.3746 -52.8199 114.626
lradius 107.865 -0 0
lwrist 72.5414 0 0
lhand 1.3714 57.7063 0.215583
lfingers 7.12502 -0 0
lthumb 26.8961 85.7421 0.187244
rclavicle 6.98852e-015 1.11319e-014 0
rhumerus 2.41996 1.12033 -73.8239
rradius 115.681 -0 0
rwrist 32.1937 0 0
rhand -38.3925 -46.0198 0.0787417
rfingers 7.12502 -0 0
rthumb -11.4148 -75.5495 0.0727613
